<?xml version="1.0" encoding="UTF-8"?>
<svg id="Layer_1" data-name="Layer 1" xmlns="http://www.w3.org/2000/svg" viewBox="0 0 398.43 315.06">
  <defs>
    <style>
      .cls-1 {
        fill: #404040;
      }

      .cls-2 {
        fill: #ddd;
        stroke: #404040;
        stroke-miterlimit: 10;
        stroke-width: 5px;
      }
    </style>
  </defs>
  <path class="cls-1" d="M7.09,262.18l248.55-82.57,89.48,28.77c28.31,9.1,45.47,17.96,51.2,26.55,5.81,8.71-.36,16.46-18.72,23.2-12.84,4.71-28.4,7.44-46.64,8.17-18.26.72-35.83-.42-52.64-3.43l-.69.25c14.59,6.45,21.68,13.34,21.13,20.67-.55,7.42-8.52,14-24,19.72-23.54,8.69-51.16,12.51-82.58,11.38-31.36-1.14-61.67-7.11-90.58-17.79L7.09,262.18ZM271.55,210.58l-58.88,20.17,24.67,8.38c11.7,3.97,23.7,6.16,35.95,6.54,12.26.38,23.13-1.11,32.56-4.46s13.08-7.04,10.79-11.01c-2.27-3.95-10.33-8.19-24.1-12.71l-20.99-6.9ZM171.14,244.97l-65.58,22.46,30.44,10.97c13.15,4.74,26.66,7.37,40.48,7.86,13.83.49,26.12-1.18,36.84-5.01,9.59-3.42,13.36-7.41,11.36-11.96-1.98-4.51-9.59-9.06-22.74-13.63l-30.81-10.7Z"/>
  <path class="cls-2" d="M202.76,111.44l-74.51-22.98v213.91l-56.87-21V70.92L2.5,49.67V3.34l200.26,59.04v49.06Z"/>
</svg>